<mxfile host="app.diagrams.net" modified="2022-05-27T10:30:33.412Z" agent="5.0 (Macintosh; Intel Mac OS X 10_15_7) AppleWebKit/537.36 (KHTML, like Gecko) Chrome/101.0.4951.64 Safari/537.36" etag="7BUk3d_h4s7Ama3YeC4Q" version="18.0.3" type="github">
  <diagram id="CV8NwxasRQHvn9cvKo58" name="第 1 页">
    <mxGraphModel dx="1234" dy="707" grid="1" gridSize="10" guides="1" tooltips="1" connect="1" arrows="1" fold="1" page="1" pageScale="1" pageWidth="827" pageHeight="1169" math="0" shadow="0">
      <root>
        <mxCell id="0" />
        <mxCell id="1" parent="0" />
        <mxCell id="BhhejPPw8KlecPP0KFXF-7" style="edgeStyle=orthogonalEdgeStyle;rounded=0;orthogonalLoop=1;jettySize=auto;html=1;exitX=1;exitY=0.5;exitDx=0;exitDy=0;fontSize=18;" edge="1" parent="1" source="BhhejPPw8KlecPP0KFXF-1" target="BhhejPPw8KlecPP0KFXF-3">
          <mxGeometry relative="1" as="geometry" />
        </mxCell>
        <mxCell id="BhhejPPw8KlecPP0KFXF-1" value="Chrome" style="rounded=1;whiteSpace=wrap;html=1;fillColor=#d5e8d4;strokeColor=#82b366;" vertex="1" parent="1">
          <mxGeometry x="50" y="220" width="130" height="70" as="geometry" />
        </mxCell>
        <mxCell id="BhhejPPw8KlecPP0KFXF-9" style="edgeStyle=orthogonalEdgeStyle;rounded=0;orthogonalLoop=1;jettySize=auto;html=1;exitX=1;exitY=0.5;exitDx=0;exitDy=0;fontSize=18;" edge="1" parent="1" source="BhhejPPw8KlecPP0KFXF-2" target="BhhejPPw8KlecPP0KFXF-4">
          <mxGeometry relative="1" as="geometry" />
        </mxCell>
        <mxCell id="BhhejPPw8KlecPP0KFXF-2" value="VPC返回IP" style="rounded=1;whiteSpace=wrap;html=1;fillColor=#d5e8d4;strokeColor=#82b366;" vertex="1" parent="1">
          <mxGeometry x="530" y="220" width="130" height="70" as="geometry" />
        </mxCell>
        <mxCell id="BhhejPPw8KlecPP0KFXF-8" style="edgeStyle=orthogonalEdgeStyle;rounded=0;orthogonalLoop=1;jettySize=auto;html=1;exitX=1;exitY=0.5;exitDx=0;exitDy=0;fontSize=18;" edge="1" parent="1" source="BhhejPPw8KlecPP0KFXF-3" target="BhhejPPw8KlecPP0KFXF-2">
          <mxGeometry relative="1" as="geometry" />
        </mxCell>
        <mxCell id="BhhejPPw8KlecPP0KFXF-3" value="COS-Internal&lt;br&gt;域名解析" style="rounded=1;whiteSpace=wrap;html=1;fillColor=#d5e8d4;strokeColor=#82b366;" vertex="1" parent="1">
          <mxGeometry x="290" y="220" width="130" height="70" as="geometry" />
        </mxCell>
        <mxCell id="BhhejPPw8KlecPP0KFXF-10" style="edgeStyle=orthogonalEdgeStyle;rounded=0;orthogonalLoop=1;jettySize=auto;html=1;exitX=1;exitY=0.5;exitDx=0;exitDy=0;fontSize=18;" edge="1" parent="1" source="BhhejPPw8KlecPP0KFXF-4" target="BhhejPPw8KlecPP0KFXF-5">
          <mxGeometry relative="1" as="geometry" />
        </mxCell>
        <mxCell id="BhhejPPw8KlecPP0KFXF-4" value="IOA" style="rounded=1;whiteSpace=wrap;html=1;fillColor=#d5e8d4;strokeColor=#82b366;" vertex="1" parent="1">
          <mxGeometry x="760" y="220" width="130" height="70" as="geometry" />
        </mxCell>
        <mxCell id="BhhejPPw8KlecPP0KFXF-11" style="edgeStyle=orthogonalEdgeStyle;rounded=0;orthogonalLoop=1;jettySize=auto;html=1;exitX=1;exitY=0.5;exitDx=0;exitDy=0;entryX=0;entryY=0.5;entryDx=0;entryDy=0;fontSize=18;" edge="1" parent="1" source="BhhejPPw8KlecPP0KFXF-5" target="BhhejPPw8KlecPP0KFXF-6">
          <mxGeometry relative="1" as="geometry" />
        </mxCell>
        <mxCell id="BhhejPPw8KlecPP0KFXF-5" value="北极星" style="rounded=1;whiteSpace=wrap;html=1;fillColor=#d5e8d4;strokeColor=#82b366;" vertex="1" parent="1">
          <mxGeometry x="980" y="220" width="130" height="70" as="geometry" />
        </mxCell>
        <mxCell id="BhhejPPw8KlecPP0KFXF-6" value="COS Server" style="rounded=1;whiteSpace=wrap;html=1;fillColor=#d5e8d4;strokeColor=#82b366;" vertex="1" parent="1">
          <mxGeometry x="1190" y="220" width="130" height="70" as="geometry" />
        </mxCell>
        <mxCell id="BhhejPPw8KlecPP0KFXF-12" value="" style="strokeWidth=2;html=1;shape=mxgraph.flowchart.annotation_2;align=left;labelPosition=right;pointerEvents=1;fontSize=18;rotation=-90;" vertex="1" parent="1">
          <mxGeometry x="467.5" y="137.5" width="20" height="355" as="geometry" />
        </mxCell>
        <mxCell id="BhhejPPw8KlecPP0KFXF-13" value="&lt;font style=&quot;font-size: 14px;&quot;&gt;&lt;font color=&quot;#ff0000&quot;&gt;目前问题出现在此链路上&lt;/font&gt;&lt;br&gt;VPC有时会返回169.254.0.0/16网段的地址；该地址段是rfc定义的link local地址段，chrome中会判定如果IP命中访block段，不会发出任何请求&lt;/font&gt;" style="text;html=1;strokeColor=none;fillColor=none;align=center;verticalAlign=middle;whiteSpace=wrap;rounded=0;fontSize=18;" vertex="1" parent="1">
          <mxGeometry x="316.25" y="320" width="322.5" height="110" as="geometry" />
        </mxCell>
      </root>
    </mxGraphModel>
  </diagram>
</mxfile>
